<?xml version="1.0" encoding="UTF-8" standalone="no"?><!-- Generator: Gravit.io --><svg xmlns="http://www.w3.org/2000/svg" xmlns:xlink="http://www.w3.org/1999/xlink" style="isolation:isolate" viewBox="0 0 560 315" width="560pt" height="315pt"><g><text transform="matrix(0.865,-0.501,0.501,0.865,228.741,-44.709)" style="font-family:'Alfa Slab One';font-weight:400;font-size:10px;font-style:normal;font-variant-ligatures:none;letter-spacing:3;fill:#000000;stroke:none;">H</text><text transform="matrix(0.967,-0.256,0.256,0.967,247.626,4.861)" style="font-family:'Alfa Slab One';font-weight:400;font-size:10px;font-style:normal;font-variant-ligatures:none;letter-spacing:3;fill:#000000;stroke:none;">E</text><text transform="matrix(0.996,-0.085,0.085,0.996,255.157,38.376)" style="font-family:'Alfa Slab One';font-weight:400;font-size:10px;font-style:normal;font-variant-ligatures:none;letter-spacing:3;fill:#000000;stroke:none;">A</text><text transform="matrix(1,0.012,-0.012,1,261.11,57.426)" style="font-family:'Alfa Slab One';font-weight:400;font-size:10px;font-style:normal;font-variant-ligatures:none;letter-spacing:3;fill:#000000;stroke:none;">V</text><text transform="matrix(0.985,0.171,-0.171,0.985,261.204,89.842)" style="font-family:'Alfa Slab One';font-weight:400;font-size:10px;font-style:normal;font-variant-ligatures:none;letter-spacing:3;fill:#000000;stroke:none;">E</text><text transform="matrix(0.936,0.352,-0.352,0.936,252.271,126.465)" style="font-family:'Alfa Slab One';font-weight:400;font-size:10px;font-style:normal;font-variant-ligatures:none;letter-spacing:3;fill:#000000;stroke:none;">N         </text><text transform="matrix(-0.338,0.941,-0.941,-0.338,-1.556,234.816)" style="font-family:'Alfa Slab One';font-weight:400;font-size:10px;font-style:normal;font-variant-ligatures:none;letter-spacing:3;fill:#000000;stroke:none;">M</text><text transform="matrix(-0.605,0.796,-0.796,-0.605,-54.582,205.58)" style="font-family:'Alfa Slab One';font-weight:400;font-size:10px;font-style:normal;font-variant-ligatures:none;letter-spacing:3;fill:#000000;stroke:none;">A</text><text transform="matrix(-0.771,0.637,-0.637,-0.771,-87.699,173.596)" style="font-family:'Alfa Slab One';font-weight:400;font-size:10px;font-style:normal;font-variant-ligatures:none;letter-spacing:3;fill:#000000;stroke:none;">D</text><text transform="matrix(-0.865,0.501,-0.501,-0.865,-109.127,148.094)" style="font-family:'Alfa Slab One';font-weight:400;font-size:10px;font-style:normal;font-variant-ligatures:none;letter-spacing:3;fill:#000000;stroke:none;">E         </text><text transform="matrix(-0.817,-0.577,0.577,-0.817,-108.262,-68.101)" style="font-family:'Alfa Slab One';font-weight:400;font-size:10px;font-style:normal;font-variant-ligatures:none;letter-spacing:3;fill:#000000;stroke:none;">F</text><text transform="matrix(-0.692,-0.721,0.721,-0.692,-83.729,-96.716)" style="font-family:'Alfa Slab One';font-weight:400;font-size:10px;font-style:normal;font-variant-ligatures:none;letter-spacing:3;fill:#000000;stroke:none;">O</text><text transform="matrix(-0.535,-0.845,0.845,-0.535,-53.042,-122.226)" style="font-family:'Alfa Slab One';font-weight:400;font-size:10px;font-style:normal;font-variant-ligatures:none;letter-spacing:3;fill:#000000;stroke:none;">O</text><text transform="matrix(-0.229,-0.973,0.973,-0.229,9.594,-142.899)" style="font-family:'Alfa Slab One';font-weight:400;font-size:10px;font-style:normal;font-variant-ligatures:none;letter-spacing:3;fill:#000000;stroke:none;">D      </text><text transform="matrix(1,0,0,1,238.495,176.6)" style="font-family:'Alex Brush';font-weight:400;font-size:8px;font-style:normal;fill:#000000;stroke:none;">by José Paco</text><path d="M 253.976 164 L 267.935 164 C 268.222 164 268.455 164.224 268.455 164.5 L 268.455 164.5 C 268.455 164.776 268.222 165 267.935 165 L 253.976 165 C 253.689 165 253.455 164.776 253.455 164.5 L 253.455 164.5 C 253.455 164.224 253.689 164 253.976 164 Z" style="stroke:none;fill:#000000;stroke-miterlimit:10;"/><g><path d=" M 280 90 C 279.471 81 272.483 76 263.54 76 C 258.11 76 252.852 78.663 249.594 83.008 C 249.519 82.969 249.44 82.942 249.364 82.906 C 249.166 82.81 248.965 82.719 248.76 82.637 C 248.646 82.592 248.532 82.551 248.417 82.511 C 248.214 82.44 248.008 82.377 247.798 82.32 C 247.683 82.289 247.569 82.257 247.453 82.231 C 247.228 82.18 246.998 82.141 246.766 82.106 C 246.665 82.091 246.566 82.071 246.464 82.06 C 246.132 82.023 245.796 82 245.455 82 C 240.492 82 236.455 86.037 236.455 91 C 236.455 91.127 236.463 91.252 236.471 91.377 L 236.471 91.381 C 232.312 93.649 229.455 98.399 229.455 103.154 C 229.455 110.237 235.217 116 242.3 116 L 266.808 116 C 266.912 116 267.015 115.994 267.119 115.986 L 267.181 115.978 L 267.315 115.986 C 267.417 115.994 267.519 116 267.624 116 L 277.427 116 C 284.059 116 289.455 110.604 289.455 103.972 C 289.455 98.483 287.766 89.812 280 90 Z  M 277.427 114 L 267.624 114 C 267.565 114 267.508 113.995 267.45 113.991 L 267.179 113.98 L 266.981 113.991 C 266.924 113.995 266.866 114 266.808 114 L 242.3 114 C 236.32 114 231.455 109.135 231.455 103.154 C 231.455 99 234.16 94.688 237.888 92.901 L 238.455 92.63 L 238.455 92 C 238.455 91.873 238.463 91.744 238.47 91.614 L 238.479 91.454 L 238.467 91.244 C 238.461 91.163 238.455 91.082 238.455 91 C 238.455 87.141 241.596 84 245.455 84 C 245.764 84 246.069 84.027 246.372 84.067 C 246.45 84.077 246.528 84.09 246.605 84.103 C 246.872 84.147 247.135 84.205 247.394 84.28 C 247.429 84.29 247.465 84.297 247.5 84.307 C 247.785 84.394 248.063 84.504 248.335 84.628 C 248.406 84.66 248.475 84.695 248.545 84.729 C 248.785 84.848 249.02 84.978 249.247 85.125 C 251.174 86.373 252.455 88.538 252.455 91 C 252.455 91.553 252.902 92 253.455 92 C 254.008 92 254.455 91.553 254.455 91 C 254.455 88.246 253.209 85.781 251.255 84.129 C 254.122 80.379 258.843 78 263.54 78 C 271.285 78 277.717 84.135 278.388 91.888 C 277.366 91.816 275.836 91.779 274.305 92.012 C 273.759 92.095 273.384 92.605 273.467 93.151 C 273.542 93.646 273.968 94.001 274.454 94.001 C 274.504 94.001 274.555 93.997 274.605 93.989 C 276.832 93.652 279.153 93.968 279.289 93.987 C 283.945 94.872 287.455 99.161 287.455 103.972 C 287.455 109.501 282.956 114 277.427 114 Z " fill="rgb(0,0,0)"/></g><text transform="matrix(1,0,0,1,238.455,158.754)" style="font-family:'Acme';font-weight:400;font-size:6px;font-style:normal;word-spacing:10;fill:#000000;stroke:none;">20 EST 19</text><g><g><g><path d=" M 312.852 89.672 C 307.431 88.66 303.771 83.823 304.692 78.891 C 305.614 73.958 310.773 70.768 316.193 71.781 C 321.613 72.793 325.274 77.631 324.352 82.563 C 323.431 87.496 318.272 90.685 312.852 89.672 Z  M 319.831 82.395 L 319.831 82.395 L 317.335 79.99 L 319.001 77.146 C 319.028 77.101 319.046 77.053 319.056 77.001 C 319.105 76.734 318.908 76.474 318.616 76.419 C 318.5 76.398 318.387 76.412 318.289 76.452 L 315.068 77.805 L 312.553 75.381 C 312.477 75.307 312.376 75.254 312.26 75.232 C 311.967 75.177 311.689 75.349 311.64 75.615 C 311.63 75.668 311.63 75.72 311.639 75.771 L 312.165 79.024 L 308.97 80.366 L 308.97 80.366 C 308.82 80.429 308.707 80.555 308.677 80.716 C 308.628 80.982 308.824 81.242 309.117 81.296 L 312.64 81.954 L 313.164 85.193 C 313.194 85.402 313.368 85.583 313.607 85.628 C 313.846 85.672 314.074 85.567 314.178 85.382 L 315.835 82.551 L 319.357 83.209 C 319.65 83.264 319.927 83.093 319.977 82.826 C 320.007 82.666 319.948 82.507 319.831 82.395 Z " fill="rgb(0,0,0)"/></g></g></g><g><g><g><path d=" M 212.105 89.587 C 206.737 90.845 201.437 87.894 200.292 83.009 C 199.147 78.124 202.583 73.124 207.951 71.866 C 213.319 70.608 218.619 73.56 219.764 78.445 C 220.909 83.33 217.474 88.329 212.105 89.587 Z  M 215.559 80.114 L 215.559 80.114 L 212.305 78.918 L 212.683 75.645 C 212.69 75.593 212.687 75.541 212.675 75.49 C 212.613 75.226 212.328 75.067 212.038 75.135 C 211.923 75.162 211.825 75.22 211.752 75.297 L 209.35 77.833 L 206.071 76.628 C 205.971 76.592 205.858 76.583 205.743 76.61 C 205.452 76.678 205.268 76.947 205.33 77.211 C 205.342 77.263 205.363 77.31 205.391 77.354 L 207.185 80.119 L 204.801 82.635 L 204.801 82.635 C 204.69 82.753 204.637 82.914 204.675 83.073 C 204.736 83.337 205.021 83.495 205.311 83.427 L 208.8 82.609 L 210.585 85.361 C 210.697 85.541 210.93 85.636 211.166 85.581 C 211.403 85.525 211.569 85.337 211.589 85.126 L 211.965 81.867 L 215.453 81.05 C 215.743 80.982 215.928 80.713 215.866 80.45 C 215.829 80.29 215.711 80.169 215.559 80.114 Z " fill="rgb(0,0,0)"/></g></g></g></g></svg>