<svg height="451pt" viewBox="0 0 451 451.26" width="451pt" xmlns="http://www.w3.org/2000/svg"><path d="m438.3125 159.769531-310.804688-134.648437c-7.738281-3.351563-16.726562.203125-20.078124 7.941406l-103.039063 237.847656c-3.355469 7.738282.199219 16.730469 7.9375 20.082032l310.804687 134.644531c7.738282 3.351562 16.726563-.203125 20.082032-7.9375l80.847656-186.628907 12.382812-28.582031 9.808594-22.636719c3.351563-7.738281-.203125-16.730468-7.941406-20.082031zm0 0" fill="#fce8cb"/><path d="m439.503906 157.015625-310.804687-134.644531c-9.238281-4.003906-20.019531.257812-24.023438 9.5l-103.039062 237.847656c-4.003907 9.242188.257812 20.019531 9.5 24.023438l310.804687 134.648437c2.328125 1.007813 4.792969 1.515625 7.257813 1.515625 2.273437 0 4.542969-.429688 6.71875-1.289062 4.539062-1.796876 8.105469-5.25 10.046875-9.726563l80.851562-186.625c.65625-1.523437-.042968-3.289063-1.5625-3.949219-1.519531-.65625-3.285156.042969-3.945312 1.5625l-80.847656 186.628906c-1.304688 3.003907-3.699219 5.328126-6.746094 6.53125-3.046875 1.203126-6.382813 1.152344-9.390625-.152343l-310.804688-134.648438c-6.207031-2.691406-9.070312-9.929687-6.378906-16.132812l103.042969-237.851563c2.6875-6.207031 9.921875-9.074218 16.132812-6.378906l310.804688 134.648438c6.207031 2.6875 9.070312 9.925781 6.378906 16.132812l-9.808594 22.640625c-.65625 1.519531.042969 3.285156 1.5625 3.945313 1.523438.65625 3.289063-.039063 3.945313-1.558594l9.808593-22.640625c4.003907-9.242188-.257812-20.023438-9.503906-24.027344zm0 0" fill="#3a312a"/><path d="m406.183594 180.785156c0-12.542968-5.363282-23.832031-13.917969-31.707031 11.542969-7.730469 19.140625-20.890625 19.140625-35.824219 0-23.347656-18.566406-42.34375-41.734375-43.0625 1.8125-4.761718 2.8125-9.921875 2.8125-15.320312 0-23.800782-19.292969-43.09375-43.09375-43.09375-14.488281 0-27.300781 7.15625-35.113281 18.121094-6.402344-15.773438-21.863282-26.902344-39.933594-26.902344-11.179688 0-21.363281 4.261718-29.023438 11.242187-7.65625-6.980469-17.84375-11.242187-29.023437-11.242187-18.070313 0-33.535156 11.128906-39.9375 26.902344-7.808594-10.964844-20.621094-18.121094-35.109375-18.121094-23.800781 0-43.097656 19.292968-43.097656 43.09375 0 5.398437 1.003906 10.558594 2.816406 15.320312-23.171875.71875-41.738281 19.714844-41.738281 43.0625 0 14.933594 7.601562 28.09375 19.144531 35.824219-8.554688 7.875-13.921875 19.164063-13.921875 31.707031 0 18.785156 12.027344 34.753906 28.796875 40.65625-6.46875 7.535156-10.386719 17.328125-10.386719 28.035156 0 13.273438 6.003907 25.140626 15.441407 33.042969-16.726563 5.921875-28.714844 21.871094-28.714844 40.628907 0 20.585937 14.4375 37.789062 33.738281 42.0625-3.300781 6.09375-5.175781 13.074218-5.175781 20.492187 0 23.800781 19.292968 43.097656 43.097656 43.097656 8.902344 0 17.175781-2.703125 24.046875-7.328125 6.429687 15.714844 21.863281 26.789063 39.890625 26.789063 18.257812 0 33.855469-11.359375 40.132812-27.390625 6.277344 16.03125 21.875 27.390625 40.128907 27.390625 18.03125 0 33.464843-11.074219 39.894531-26.789063 6.871094 4.625 15.144531 7.328125 24.046875 7.328125 23.800781 0 43.097656-19.292969 43.097656-43.097656 0-7.417969-1.878906-14.398437-5.175781-20.492187 19.296875-4.273438 33.738281-21.476563 33.738281-42.0625 0-18.757813-11.988281-34.707032-28.714843-40.628907 9.433593-7.902343 15.4375-19.769531 15.4375-33.042969 0-10.707031-3.914063-20.5-10.382813-28.035156 16.769531-5.898437 28.792969-21.871094 28.792969-40.65625zm0 0" fill="#d7e057"/><path d="m409.183594 180.785156c0-11.628906-4.449219-22.863281-12.3125-31.347656 11.042968-8.71875 17.539062-21.992188 17.539062-36.183594 0-23.710937-17.570312-43.105468-40.675781-45.769531 1.164063-4.09375 1.753906-8.320313 1.753906-12.613281 0-25.417969-20.675781-46.09375-46.09375-46.09375-13.203125 0-25.746093 5.707031-34.449219 15.484375-7.972656-14.886719-23.421874-24.261719-40.597656-24.261719-10.625 0-20.828125 3.632812-29.023437 10.285156-8.195313-6.652344-18.402344-10.285156-29.023438-10.285156-17.179687 0-32.625 9.375-40.601562 24.261719-8.699219-9.773438-21.25-15.484375-34.445313-15.484375-25.417968 0-46.097656 20.675781-46.097656 46.09375 0 4.292968.589844 8.519531 1.757812 12.613281-23.109374 2.664063-40.675781 22.058594-40.675781 45.769531 0 14.191406 6.492188 27.464844 17.535157 36.183594-7.863282 8.484375-12.3125 19.71875-12.3125 31.347656 0 18.144532 10.6875 34.519532 26.976562 41.945313-5.546875 7.78125-8.566406 17.132812-8.566406 26.746093 0 12.054688 4.679687 23.496094 12.980468 32.0625-15.878906 7.578126-26.253906 23.742188-26.253906 41.609376 0 20.171874 13.433594 38.117187 32.445313 44.027343-2.550781 5.808594-3.882813 12.144531-3.882813 18.53125 0 25.414063 20.675782 46.09375 46.09375 46.09375 8.03125 0 15.820313-2.0625 22.726563-5.984375 7.78125 15.566406 23.597656 25.445313 41.214843 25.445313 16.902344 0 32.039063-9.003907 40.128907-23.402344 8.09375 14.402344 23.230469 23.402344 40.128906 23.402344 17.621094 0 33.4375-9.878907 41.214844-25.445313 6.910156 3.921875 14.695312 5.984375 22.726562 5.984375 25.417969 0 46.097657-20.679687 46.097657-46.09375 0-6.386719-1.335938-12.722656-3.882813-18.53125 19.007813-5.910156 32.445313-23.855469 32.445313-44.027343 0-17.867188-10.378907-34.03125-26.257813-41.609376 8.300781-8.566406 12.980469-20.007812 12.980469-32.0625 0-9.613281-3.015625-18.964843-8.5625-26.746093 16.28125-7.425781 26.96875-23.800781 26.96875-41.945313zm-32.789063 37.824219c-.933593.332031-1.644531 1.097656-1.902343 2.054687-.253907.957032-.023438 1.976563.621093 2.730469 6.230469 7.261719 9.660157 16.527344 9.660157 26.085938 0 11.886719-5.238282 23.09375-14.367188 30.742187-.824219.691406-1.214844 1.773438-1.023438 2.835938.191407 1.058594.933594 1.933594 1.949219 2.292968 15.976563 5.65625 26.714844 20.847657 26.714844 37.800782 0 18.648437-13.203125 35.105468-31.386719 39.132812-.921875.203125-1.691406.828125-2.082031 1.683594s-.355469 1.84375.09375 2.671875c3.148437 5.816406 4.8125 12.410156 4.8125 19.066406 0 22.105469-17.988281 40.09375-40.09375 40.09375-8.015625 0-15.753906-2.359375-22.371094-6.816406-.75-.507813-1.683593-.644531-2.546875-.382813-.867187.261719-1.5625.902344-1.90625 1.738282-6.195312 15.136718-20.761718 24.921875-37.117187 24.921875-16.621094 0-31.273438-10.003907-37.339844-25.484375-.449219-1.152344-1.554687-1.90625-2.789063-1.90625-1.234374 0-2.34375.757812-2.792968 1.90625-6.0625 15.480468-20.71875 25.484375-37.339844 25.484375-16.351562 0-30.921875-9.785157-37.117188-24.921875-.339843-.835938-1.042968-1.472656-1.902343-1.738282-.867188-.257812-1.800781-.121093-2.550781.382813-6.617188 4.457031-14.351563 6.816406-22.367188 6.816406-22.109375 0-40.097656-17.988281-40.097656-40.09375 0-6.65625 1.667968-13.25 4.816406-19.066406.445312-.828125.480469-1.816406.089844-2.671875s-1.160156-1.480469-2.078125-1.683594c-18.1875-4.027344-31.386719-20.484375-31.386719-39.132812 0-16.953125 10.734375-32.144532 26.714844-37.800782 1.015625-.359374 1.757812-1.234374 1.949218-2.292968.191407-1.0625-.199218-2.140625-1.023437-2.835938-9.128906-7.648437-14.367187-18.851562-14.367187-30.742187 0-9.558594 3.429687-18.824219 9.660156-26.085938.644531-.75.875-1.773437.621094-2.730469-.257813-.957031-.96875-1.722656-1.902344-2.054687-16.023438-5.636719-26.789063-20.835937-26.789063-37.824219 0-11.167968 4.71875-21.921875 12.949219-29.5.675781-.625 1.03125-1.519531.957031-2.4375-.066406-.914062-.554687-1.75-1.320312-2.261718-11.152344-7.472657-17.808594-19.933594-17.808594-33.332032 0-21.789062 17.054687-39.386718 38.828125-40.0625.96875-.03125 1.863281-.53125 2.402344-1.335937.539062-.804688.652344-1.824219.308594-2.730469-1.738282-4.566406-2.617188-9.359375-2.617188-14.253906 0-22.109375 17.988281-40.097656 40.09375-40.097656 12.933594 0 25.144531 6.304687 32.667969 16.863281.636719.894531 1.707031 1.371093 2.792969 1.238281 1.085937-.128906 2.019531-.835938 2.429687-1.847656 6.171875-15.207032 20.757813-25.03125 37.160156-25.03125 10.015625 0 19.605469 3.714844 27 10.457031 1.144531 1.042969 2.894531 1.042969 4.042969 0 7.394531-6.742187 16.984375-10.457031 27-10.457031 16.402344 0 30.984375 9.824218 37.160156 25.03125.410156 1.011718 1.339844 1.722656 2.429688 1.847656 1.085937.128906 2.160156-.34375 2.792968-1.238281 7.523438-10.558594 19.734376-16.863281 32.667969-16.863281 22.105469 0 40.09375 17.988281 40.09375 40.097656 0 4.894531-.878906 9.6875-2.617187 14.253906-.34375.90625-.230469 1.921875.308594 2.730469.539062.808593 1.433593 1.304687 2.402343 1.335937 21.773438.675782 38.828125 18.273438 38.828125 40.0625 0 13.398438-6.65625 25.859375-17.808594 33.332032-.765624.511718-1.253906 1.34375-1.324218 2.261718-.066406.917969.285156 1.8125.960937 2.4375 8.230469 7.578125 12.949219 18.332032 12.949219 29.5-.003906 16.988282-10.769531 32.1875-26.792969 37.824219zm0 0" fill="#3a312a"/><path d="m134.878906 168.378906c-10.503906-25.367187-39.585937-37.414062-64.953125-26.90625-25.363281 10.507813-37.410156 39.589844-26.902343 64.953125 10.507812 25.367188 39.585937 37.414063 64.953124 26.90625 25.367188-10.507812 37.410157-39.589843 26.902344-64.953125zm0 0" fill="#f16c7a"/><path d="m88.945312 134.6875c-29.0625 0-52.710937 23.648438-52.710937 52.710938 0 29.066406 23.648437 52.714843 52.710937 52.714843s52.710938-23.648437 52.710938-52.714843c0-29.0625-23.648438-52.710938-52.710938-52.710938zm0 99.425781c-25.757812 0-46.710937-20.957031-46.710937-46.714843 0-25.757813 20.953125-46.710938 46.710937-46.710938 25.753907 0 46.710938 20.953125 46.710938 46.710938 0 25.757812-20.957031 46.714843-46.710938 46.714843zm0 0" fill="#3a312a"/><path d="m165.777344 381.089844c-6.308594-26.71875-33.082032-43.265625-59.804688-36.957032-26.71875 6.3125-43.261718 33.085938-36.953125 59.804688 6.308594 26.71875 33.082031 43.265625 59.800781 36.957031 26.722657-6.308593 43.265626-33.085937 36.957032-59.804687zm0 0" fill="#f16c7a"/><path d="m117.386719 339.828125c-29.066407 0-52.714844 23.648437-52.714844 52.710937 0 29.066407 23.648437 52.710938 52.714844 52.710938 29.0625 0 52.707031-23.644531 52.707031-52.710938.003906-29.0625-23.644531-52.710937-52.707031-52.710937zm0 99.425781c-25.757813 0-46.714844-20.957031-46.714844-46.710937 0-25.757813 20.957031-46.710938 46.714844-46.710938 25.753906 0 46.707031 20.953125 46.707031 46.710938.003906 25.753906-20.949219 46.710937-46.707031 46.710937zm0 0" fill="#3a312a"/><path d="m333.683594 348.839844c-27.453125 0-49.707032 22.253906-49.707032 49.710937 0 27.453125 22.253907 49.710938 49.707032 49.710938 27.457031 0 49.714844-22.257813 49.714844-49.710938-.003907-27.457031-22.257813-49.710937-49.714844-49.710937zm0 0" fill="#f16c7a"/><path d="m333.683594 345.839844c-29.066406 0-52.710938 23.644531-52.710938 52.710937 0 29.0625 23.644532 52.710938 52.710938 52.710938s52.710937-23.648438 52.710937-52.710938c.003907-29.066406-23.644531-52.710937-52.710937-52.710937zm0 99.421875c-25.753906 0-46.710938-20.957031-46.710938-46.710938 0-25.757812 20.953125-46.710937 46.710938-46.710937 25.757812 0 46.710937 20.953125 46.710937 46.710937.003907 25.753907-20.953125 46.710938-46.710937 46.710938zm0 0" fill="#3a312a"/><path d="m391.808594 73.714844c-6.375-26.707032-33.195313-43.1875-59.898438-36.8125-26.707031 6.375-43.1875 33.191406-36.8125 59.898437 6.375 26.703125 33.191406 43.183594 59.898438 36.808594 26.707031-6.375 43.1875-33.191406 36.8125-59.894531zm0 0" fill="#f16c7a"/><path d="m343.441406 32.535156c-29.0625 0-52.710937 23.644532-52.710937 52.707032 0 29.066406 23.648437 52.710937 52.710937 52.710937 29.066406 0 52.710938-23.644531 52.710938-52.710937 0-29.0625-23.648438-52.707032-52.710938-52.707032zm0 99.421875c-25.757812 0-46.710937-20.953125-46.710937-46.710937 0-25.757813 20.953125-46.710938 46.710937-46.710938 25.753906 0 46.710938 20.953125 46.710938 46.710938 0 25.757812-20.957032 46.710937-46.710938 46.710937zm0 0" fill="#3a312a"/><path d="m412.046875 168.675781c-10.347656-25.429687-39.347656-37.65625-64.777344-27.308593-25.429687 10.347656-37.65625 39.351562-27.308593 64.78125 10.347656 25.429687 39.351562 37.652343 64.78125 27.304687 25.429687-10.347656 37.652343-39.347656 27.304687-64.777344zm0 0" fill="#f16c7a"/><path d="m366.027344 134.6875c-29.0625 0-52.710938 23.648438-52.710938 52.710938 0 29.066406 23.648438 52.714843 52.710938 52.714843 29.066406 0 52.710937-23.648437 52.710937-52.714843 0-29.0625-23.644531-52.710938-52.710937-52.710938zm0 99.425781c-25.753906 0-46.710938-20.957031-46.710938-46.714843 0-25.757813 20.953125-46.710938 46.710938-46.710938 25.757812 0 46.710937 20.953125 46.710937 46.710938 0 25.757812-20.953125 46.714843-46.710937 46.714843zm0 0" fill="#3a312a"/><path d="m139.910156 42.078125c-19.414062-19.414063-50.886718-19.414063-70.300781 0s-19.414063 50.890625 0 70.304687c19.414063 19.410157 50.886719 19.410157 70.300781 0 19.414063-19.414062 19.414063-50.890624 0-70.304687zm0 0" fill="#f16c7a"/><path d="m104.761719 24.519531c-29.066407 0-52.710938 23.644531-52.710938 52.710938 0 29.066406 23.644531 52.710937 52.710938 52.710937 29.0625 0 52.710937-23.648437 52.710937-52.710937 0-29.066407-23.648437-52.710938-52.710937-52.710938zm0 99.421875c-25.757813 0-46.710938-20.957031-46.710938-46.710937 0-25.757813 20.953125-46.710938 46.710938-46.710938 25.757812 0 46.710937 20.953125 46.710937 46.710938 0 25.757812-20.957031 46.710937-46.710937 46.710937zm0 0" fill="#3a312a"/><path d="m177.585938 264.464844c0-34.632813-32.605469-62.710938-72.824219-62.710938s-72.824219 28.078125-72.824219 62.710938c0 34.636718 32.605469 62.714844 72.824219 62.714844s72.824219-28.078126 72.824219-62.714844zm0 0" fill="#87796f"/><path d="m104.761719 198.753906c-41.808594 0-75.824219 29.476563-75.824219 65.714844 0 36.234375 34.011719 65.710938 75.824219 65.710938 41.808593 0 75.824219-29.476563 75.824219-65.710938-.003907-36.238281-34.015626-65.714844-75.824219-65.714844zm0 125.425782c-38.503907 0-69.824219-26.789063-69.824219-59.710938 0-32.925781 31.320312-59.714844 69.824219-59.714844 38.5 0 69.824219 26.789063 69.824219 59.714844-.003907 32.921875-31.324219 59.710938-69.824219 59.710938zm0 0" fill="#3a312a"/><path d="m380.257812 338.898438c0-34.632813-32.601562-62.710938-72.824218-62.710938-40.21875 0-72.824219 28.078125-72.824219 62.710938 0 34.636718 32.605469 62.714843 72.824219 62.714843 40.222656 0 72.824218-28.078125 72.824218-62.714843zm0 0" fill="#87796f"/><path d="m307.433594 273.1875c-41.808594 0-75.824219 29.476562-75.824219 65.714844 0 36.234375 34.015625 65.710937 75.824219 65.710937s75.824218-29.476562 75.824218-65.710937c0-36.238282-34.015624-65.714844-75.824218-65.714844zm0 125.425781c-38.5 0-69.824219-26.789062-69.824219-59.710937 0-32.925782 31.324219-59.714844 69.824219-59.714844s69.824218 26.789062 69.824218 59.714844c0 32.921875-31.320312 59.710937-69.824218 59.710937zm0 0" fill="#3a312a"/><path d="m268.285156 65.910156c0-34.636718-32.601562-62.710937-72.820312-62.710937-40.222656 0-72.824219 28.074219-72.824219 62.710937 0 34.632813 32.601563 62.710938 72.824219 62.710938 40.21875 0 72.820312-28.078125 72.820312-62.710938zm0 0" fill="#87796f"/><path d="m195.464844.199219c-41.808594 0-75.824219 29.476562-75.824219 65.710937s34.011719 65.710938 75.824219 65.710938c41.808594 0 75.820312-29.476563 75.820312-65.710938s-34.015625-65.710937-75.820312-65.710937zm0 125.425781c-38.503906 0-69.824219-26.789062-69.824219-59.714844 0-32.925781 31.320313-59.710937 69.824219-59.710937 38.5 0 69.820312 26.785156 69.820312 59.710937 0 32.925782-31.320312 59.714844-69.820312 59.714844zm0 0" fill="#3a312a"/><path d="m225.320312 27.519531c-87.066406 0-157.648437 46.234375-157.648437 103.265625 0 22.46875 10.960937 43.253906 29.558594 60.203125 0 .003907 0 .003907.003906.007813v49.867187c.027344 0 .058594-.003906.085937-.003906v31.039063c-.027343 0-.058593-.003907-.085937-.003907v109.101563c0 23.332031 18.914063 42.246094 42.246094 42.246094h171.683593c23.332032 0 42.246094-18.914063 42.246094-42.246094v-190c0-.003906 0-.007813.003906-.007813 18.597657-16.949219 29.554688-37.734375 29.554688-60.203125 0-57.03125-70.582031-103.265625-157.648438-103.265625zm0 0" fill="#fce8cb"/><path d="m225.320312 24.519531c-88.578124 0-160.648437 47.671875-160.648437 106.265625 0 22.257813 10.21875 43.507813 29.5625 61.519532v48.558593c0 1.660157 1.429687 2.996094 3.085937 2.996094 1.660157 0 2.957032-1.339844 2.957032-2.996094 0-.171875-.015625-.34375-.042969-.507812v-49.359375c0-.421875-.089844-.839844-.261719-1.21875-.167968-.382813-.414062-.726563-.722656-1.007813-18.695312-17.035156-28.578125-37.085937-28.578125-57.984375 0-55.289062 69.378906-100.265625 154.648437-100.265625 85.273438 0 154.648438 44.976563 154.648438 100.265625 0 20.898438-9.882812 40.949219-28.574219 57.984375-.3125.28125-.558593.625-.726562 1.007813-.167969.378906-.257813.796875-.257813 1.21875v190c0 21.640625-17.605468 39.246094-39.246094 39.246094h-171.683593c-21.640625 0-39.246094-17.605469-39.246094-39.246094v-108.582032c.027344-.152343.042969-.308593.042969-.46875.027344-1.640624-1.308594-2.996093-2.945313-3.050781-.808593-.027343-1.601562.28125-2.183593.84375-.585938.566407-.914063 1.339844-.914063 2.15625v109.101563c0 24.949218 20.292969 45.246094 45.242187 45.246094h171.6875c24.945313 0 45.242188-20.296876 45.242188-45.246094v-188.691406c19.34375-18.011719 29.5625-39.261719 29.5625-61.519532 0-58.59375-72.066406-106.265625-160.648438-106.265625zm0 0" fill="#3a312a"/><path d="m225.320312 30.519531c-4.597656 0-9.160156.140625-13.660156.402344 78.902344 4.5 140.960938 47.558594 140.960938 99.859375 0 20.898438-9.878906 40.957031-28.578125 57.980469-.300781.296875-.542969.636719-.722657 1-.160156.398437-.257812.816406-.257812 1.238281v190c0 21.640625-17.601562 39.238281-39.242188 39.238281h27.339844c21.640625 0 39.242188-17.597656 39.242188-39.238281v-190c0-.421875.097656-.839844.277344-1.238281.160156-.363281.402343-.703125.722656-1 18.679687-17.023438 28.558594-37.082031 28.558594-57.980469 0-55.28125-69.359376-100.261719-154.640626-100.261719zm0 0" fill="#decaad"/></svg>